<?xml version="1.0" encoding="utf-8"?>
<!-- Generator: Adobe Illustrator 16.0.4, SVG Export Plug-In . SVG Version: 6.00 Build 0)  -->
<!DOCTYPE svg PUBLIC "-//W3C//DTD SVG 1.1//EN" "http://www.w3.org/Graphics/SVG/1.1/DTD/svg11.dtd">
<svg version="1.1" id="Layer_1" xmlns="http://www.w3.org/2000/svg" xmlns:xlink="http://www.w3.org/1999/xlink" x="0px" y="0px"
	 width="100px" height="100px" viewBox="0 0 200 200" enable-background="new 0 0 200 200" xml:space="preserve">
<g>
	<path fill="#589E33" d="M58,140.75h81V70H58V140.75z M86,79.391h46.594v12H86V79.391z M86,99.891h46.594v12H86V99.891z M86,120.391
		h46.594v12H86V120.391z M65.406,79.391h15v12h-15V79.391z M65.406,99.891h15v12h-15V99.891z M65.406,120.391h15v12h-15V120.391z"/>
	<path fill="#589E33" d="M100,0C44.771,0,0,44.771,0,100s44.771,100,100,100s100-44.771,100-100S155.229,0,100,0z M149,145.75
		c0,2.762-2.238,5-5,5H53c-2.762,0-5-2.238-5-5V57c0-2.762,2.238-5,5-5h91c2.762,0,5,2.238,5,5V145.75z"/>
</g>
</svg>
