<?xml version="1.0" encoding="utf-8"?>
<!-- Generator: Adobe Illustrator 16.0.4, SVG Export Plug-In . SVG Version: 6.00 Build 0)  -->
<!DOCTYPE svg PUBLIC "-//W3C//DTD SVG 1.1//EN" "http://www.w3.org/Graphics/SVG/1.1/DTD/svg11.dtd">
<svg version="1.1" id="Layer_1" xmlns="http://www.w3.org/2000/svg" xmlns:xlink="http://www.w3.org/1999/xlink" x="0px" y="0px"
	 width="100px" height="100px" viewBox="0 0 200 200" enable-background="new 0 0 200 200" xml:space="preserve">
<g>
	<path fill="#589E33" d="M100,0C44.771,0,0,44.771,0,100s44.771,100,100,100s100-44.771,100-100S155.229,0,100,0z M154.015,137.828
		l-53.528,19.644l-0.486,0.2l-0.485-0.2l-53.528-19.644v-87.5L100,70.15l54.015-19.822V137.828z"/>
	<g>
		<path fill="#589E33" d="M93.623,119.945c1.679,1.629,4.096,2.439,7.249,2.439c2.257,0,4.199-0.561,5.828-1.692
			c1.627-1.128,2.628-2.323,2.992-3.583h9.846c-1.575,4.885-3.993,8.374-7.242,10.475c-3.256,2.102-7.199,3.149-11.82,3.149
			c-3.198,0-6.091-0.509-8.659-1.534c-2.578-1.023-4.758-2.481-6.539-4.372c-1.79-1.892-3.166-4.147-4.134-6.772
			c-0.975-2.625-1.461-5.516-1.461-8.667c0-3.044,0.498-5.878,1.497-8.506c0.995-2.624,2.418-4.894,4.251-6.813
			c1.841-1.917,4.031-3.426,6.577-4.528c2.551-1.103,5.371-1.653,8.468-1.653c3.467,0,6.488,0.669,9.062,2.008
			c2.571,1.34,4.687,3.139,6.341,5.395c1.653,2.26,2.846,4.834,3.582,7.721c0.732,2.889,0.994,5.907,0.789,9.058H90.866
			C91.026,115.689,91.944,118.316,93.623,119.945z M106.271,98.521c-1.34-1.472-3.378-2.206-6.109-2.206
			c-1.781,0-3.27,0.303-4.448,0.904c-1.18,0.605-2.129,1.353-2.833,2.246c-0.711,0.895-1.213,1.84-1.5,2.838
			c-0.287,0.996-0.462,1.887-0.514,2.676h18.199C108.538,102.142,107.604,99.991,106.271,98.521z"/>
	</g>
</g>
</svg>
