<?xml version="1.0" encoding="utf-8"?>
<!-- Generator: Adobe Illustrator 16.0.4, SVG Export Plug-In . SVG Version: 6.00 Build 0)  -->
<!DOCTYPE svg PUBLIC "-//W3C//DTD SVG 1.1//EN" "http://www.w3.org/Graphics/SVG/1.1/DTD/svg11.dtd">
<svg version="1.1" id="Layer_1" xmlns="http://www.w3.org/2000/svg" xmlns:xlink="http://www.w3.org/1999/xlink" x="0px" y="0px"
	 width="100px" height="100px" viewBox="0 0 200 200" enable-background="new 0 0 200 200" xml:space="preserve">
<circle fill="#589E33" cx="100" cy="100" r="100"/>
<g>
	<path fill="#FFFFFF" d="M99.5,82.636c-4.763,0-8.637-3.875-8.637-8.637v-35.03c0-4.763,3.874-8.637,8.637-8.637
		s8.637,3.874,8.637,8.637v35.03C108.137,78.761,104.263,82.636,99.5,82.636z"/>
	<g>
		<path fill="#FFFFFF" d="M99.5,44.625c-2.787,0-5.525,0.209-8.21,0.586v16.642c2.657-0.525,5.401-0.807,8.21-0.807
			s5.553,0.281,8.21,0.807V45.211C105.025,44.834,102.287,44.625,99.5,44.625z"/>
		<path fill="#FFFFFF" d="M113.184,46.253v17.078c16.608,5.701,28.584,21.464,28.584,39.981c0,23.306-18.962,42.268-42.268,42.268
			s-42.267-18.962-42.267-42.268c0-18.518,11.975-34.28,28.583-39.981V46.253c-25.78,6.183-45.004,29.411-45.004,57.06
			C40.812,135.673,67.14,162,99.5,162s58.688-26.327,58.688-58.688C158.188,75.664,138.964,52.436,113.184,46.253z"/>
	</g>
</g>
</svg>
