<?xml version="1.0" encoding="utf-8"?>
<!-- Generator: Adobe Illustrator 16.0.4, SVG Export Plug-In . SVG Version: 6.00 Build 0)  -->
<!DOCTYPE svg PUBLIC "-//W3C//DTD SVG 1.1//EN" "http://www.w3.org/Graphics/SVG/1.1/DTD/svg11.dtd">
<svg version="1.1" id="Layer_1" xmlns="http://www.w3.org/2000/svg" xmlns:xlink="http://www.w3.org/1999/xlink" x="0px" y="0px"
	 width="100px" height="100px" viewBox="0 0 200 200" enable-background="new 0 0 200 200" xml:space="preserve">
<path fill="#589E33" d="M100,0C44.771,0,0,44.771,0,100s44.771,100,100,100s100-44.771,100-100S155.229,0,100,0z M140.909,93.358
	h-18.412v56.961c0,4.158-3.401,7.56-7.56,7.56H85.062c-4.158,0-7.56-3.401-7.56-7.56V93.358H59.091c-3.269,0-4.325-2.13-2.348-4.732
	l39.662-52.209c1.978-2.603,5.212-2.603,7.189,0l39.662,52.209C145.234,91.229,144.178,93.358,140.909,93.358z"/>
</svg>
