<?xml version="1.0" encoding="utf-8"?>
<!-- Generator: Adobe Illustrator 16.0.4, SVG Export Plug-In . SVG Version: 6.00 Build 0)  -->
<!DOCTYPE svg PUBLIC "-//W3C//DTD SVG 1.1//EN" "http://www.w3.org/Graphics/SVG/1.1/DTD/svg11.dtd">
<svg version="1.1" id="Logo" xmlns="http://www.w3.org/2000/svg" xmlns:xlink="http://www.w3.org/1999/xlink" x="0px" y="0px"
	 width="693.833px" height="168.53px" viewBox="0 0 693.833 168.53" enable-background="new 0 0 693.833 168.53"
	 xml:space="preserve">
<g>
	<path fill="#729F40" d="M267.547,62.336c-1.803,0.201-3.515,0.564-5.125,1.077c-13.483-14.689-43.639-24.658-77.299-24.658
		c-1.37,0-2.738,0.02-4.118,0.051c-24.125,0.554-46.599,5.94-63.272,15.163c-15.396,8.508-23.732,19.061-23.481,29.733
		c0.161,7.107,4.27,14.167,11.861,20.409l1.047,0.855c0.382,0.333,0.665,0.775,0.775,1.269l5.236,22.312l24.094-8.94
		c0.443-0.161,0.926-0.192,1.39-0.07l1.218,0.321c13.311,3.434,27.83,5.023,43.124,4.652c24.135-0.564,46.598-5.94,63.273-15.154
		c2.638-1.459,5.075-2.97,7.289-4.551c1.289,1.048,2.699,1.934,4.239,2.649c-2.779,2.093-5.881,4.086-9.283,5.971
		c-17.318,9.564-40.547,15.151-65.407,15.735c-15.718,0.374-30.669-1.268-44.403-4.812l-0.514-0.132l-23.651,8.78
		c-0.564,0.2-1.138,0.313-1.712,0.313c-1.702,0-3.212-0.937-3.837-2.398c-0.06-0.119-0.1-0.251-0.13-0.391l-5.266-22.464
		l-0.443-0.362c-8.669-7.129-13.351-15.386-13.553-23.894c-0.292-12.476,8.901-24.518,25.887-33.901
		c17.318-9.576,40.547-15.164,65.407-15.748c1.42-0.03,2.82-0.05,4.229-0.05C221.372,34.104,253.904,45.602,267.547,62.336z"/>
	<path fill="#729F40" d="M307.354,68.206c-11.522,0-18.96,7.65-18.967,19.493c-0.002,4.796,1.536,8.821,4.448,11.646
		c2.972,2.883,7.292,4.409,12.486,4.409l0.021,0.002c11.737,0,18.75-7.335,18.76-19.623c0.003-4.778-1.525-8.78-4.424-11.579
		C316.738,69.712,312.476,68.208,307.354,68.206z M305.512,95.3c0,0,0,0-0.002,0c-1.79-0.002-3.148-0.622-4.027-1.843
		c-0.85-1.178-1.263-2.893-1.263-5.239c0.006-7.466,2.494-11.748,6.82-11.748c1.744,0,3.075,0.652,3.958,1.939
		c0.845,1.229,1.271,3.067,1.271,5.46C312.263,90.812,309.614,95.3,305.512,95.3z"/>
	<path fill="#729F40" d="M339.761,68.354c-8.414,0-14.757,8.435-14.764,19.623c-0.005,9.477,4.729,15.603,12.06,15.608h0.003
		c3.969-0.002,7.351-1.812,9.784-5.239l1.043-1.467l-0.557,5.686l10.14,0.002l5.873-45.09l-11.406-0.009L349.63,74.07l-0.7-0.985
		C346.674,69.899,343.673,68.354,339.761,68.354z M341.576,94.804L341.576,94.804c-1.633,0-2.974-0.643-3.882-1.856
		c-0.896-1.199-1.35-2.891-1.35-5.026c0.006-5.955,2.847-10.277,6.756-10.277h0.002c3.442,0.003,5.415,2.489,5.411,6.824
		C348.51,90.555,345.658,94.804,341.576,94.804z"/>
	<polygon fill="#729F40" points="361.79,102.572 373.307,102.578 379.119,57.484 367.66,57.479 	"/>
	<path fill="#729F40" d="M396.289,68.322c-11.224,0-18.472,7.801-18.477,19.876c-0.002,4.665,1.549,8.578,4.486,11.317
		c3.004,2.805,7.372,4.289,12.63,4.289l0.02,0.48v-0.479c8.708,0,14.673-3.608,16.877-10.177l-11.136-0.004
		c-0.723,1.75-2.549,2.747-5.074,2.747c-1.977-0.002-3.502-0.598-4.542-1.771c-1.031-1.162-1.551-2.863-1.549-5.05l0.002-1.057
		l23.616,0.016c0.095-0.987,0.141-1.921,0.141-2.852C413.287,74.322,407.414,68.326,396.289,68.322z M402.187,82.735l-12.183-0.007
		l0.076-0.542c0.573-4.149,2.982-6.624,6.442-6.624h0.006c3.527,0,5.587,2.437,5.651,6.687L402.187,82.735z"/>
	<polygon fill="#729F40" points="142.159,102.448 154.495,102.452 145.65,82.066 158.293,69.399 145.29,69.394 134.976,81.425 
		138.435,57.349 126.917,57.341 120.627,102.435 131.967,102.44 133.213,93.73 137.387,89.42 	"/>
	<path fill="#729F40" d="M174.19,68.192c-11.222,0-18.47,7.804-18.476,19.88c-0.008,9.621,6.551,15.601,17.112,15.608h0.017
		c8.711,0,14.678-3.606,16.883-10.177l-11.135-0.008c-0.726,1.754-2.555,2.751-5.082,2.751c-3.928-0.004-6.088-2.427-6.088-6.823
		l0.008-1.059l23.616,0.016c0.092-0.986,0.136-1.923,0.136-2.85c0.005-5.642-1.448-9.988-4.321-12.919
		C183.988,69.683,179.725,68.194,174.19,68.192z M180.088,82.61l-12.184-0.01l0.076-0.545c0.575-4.146,2.987-6.623,6.444-6.623
		h0.004c3.531,0.002,5.591,2.44,5.653,6.69L180.088,82.61z"/>
	<path fill="#729F40" d="M191.958,102.472l11.337,0.008l1.719-12.588c0.836-6.207,2.346-9.568,7.908-9.568
		c0.519,0,1.154,0.071,1.957,0.158l0.495,0.053l1.647-12.056c-0.354-0.04-0.686-0.069-1.046-0.07c-3.579,0-6.372,1.818-8.792,5.725
		l-0.881-0.316l0.598-4.388l-10.483-0.007L191.958,102.472z"/>
	<path fill="#729F40" d="M225.144,96.643l0.687,1.375c1.817,3.642,5.29,5.567,10.045,5.571h0.009
		c8.891-0.002,14.869-8.275,14.874-20.587c0.003-4.48-1.126-8.208-3.263-10.784c-2.094-2.521-5.094-3.858-8.674-3.858
		c-3.457,0-6.182,1.321-8.338,4.041l-1.133,1.426l2.582-16.425l-11.45-0.006l-6.287,45.094l10.118,0.004L225.144,96.643z
		 M233.08,94.299L233.08,94.299c-3.261-0.006-5.291-2.647-5.289-6.891c0.006-5.935,2.758-10.082,6.693-10.082h0.008
		c1.707,0,3.035,0.603,3.948,1.789c0.89,1.155,1.341,2.827,1.337,4.969C239.773,90.002,236.959,94.299,233.08,94.299z"/>
	<path fill="#729F40" d="M270.986,68.185c-11.52,0-18.958,7.649-18.963,19.492c-0.007,9.898,6.479,16.052,16.93,16.06h0.015
		c11.744,0,18.76-7.338,18.766-19.627C287.741,74.292,281.323,68.19,270.986,68.185z M269.142,95.28L269.142,95.28
		c-1.791-0.002-3.146-0.624-4.028-1.845c-0.849-1.176-1.262-2.893-1.261-5.237c0.006-7.466,2.49-11.749,6.819-11.749h0.003
		c1.743,0.002,3.074,0.653,3.958,1.941c0.844,1.229,1.271,3.065,1.268,5.457C275.899,90.79,273.246,95.28,269.142,95.28z"/>
</g>
<g>
	<path fill="#93C01F" d="M454.457,56.653l-0.792,3.828h-16.17l-9.438,43.296h-4.488l9.438-43.296h-16.17l0.793-3.828H454.457z"/>
	<path fill="#93C01F" d="M467.03,69.623c1.65,0.594,3.068,1.463,4.257,2.607c1.188,1.145,2.112,2.541,2.772,4.191
		s0.99,3.531,0.99,5.643c0,2.86-0.396,5.654-1.188,8.382c-0.792,2.729-1.97,5.148-3.531,7.26c-1.562,2.112-3.521,3.806-5.874,5.082
		c-2.354,1.276-5.115,1.914-8.283,1.914c-4.4,0-7.766-1.275-10.098-3.828c-2.332-2.551-3.498-5.983-3.498-10.296
		c0-2.772,0.418-5.478,1.254-8.118c0.836-2.64,2.068-4.972,3.696-6.996c1.628-2.023,3.618-3.652,5.974-4.884
		c2.353-1.231,5.049-1.848,8.084-1.848C463.565,68.731,465.379,69.028,467.03,69.623z M463.004,99.521
		c1.737-1.166,3.189-2.65,4.355-4.455c1.165-1.804,2.046-3.784,2.641-5.94c0.594-2.155,0.891-4.224,0.891-6.204
		c0-3.168-0.836-5.742-2.508-7.722c-1.674-1.98-4.182-2.97-7.524-2.97c-2.288,0-4.312,0.561-6.072,1.683
		c-1.761,1.122-3.233,2.553-4.422,4.29c-1.188,1.739-2.091,3.674-2.706,5.808c-0.617,2.135-0.924,4.191-0.924,6.171
		c0,3.3,0.836,5.973,2.508,8.019c1.672,2.046,4.246,3.069,7.723,3.069C459.252,101.27,461.265,100.687,463.004,99.521z"/>
	<path fill="#93C01F" d="M528.641,56.653l-10.164,47.124h-4.093l10.099-47.124H528.641z"/>
	<path fill="#93C01F" d="M532.171,96.847c0.55,1.101,1.276,1.98,2.179,2.64c0.9,0.66,1.936,1.122,3.102,1.386
		c1.165,0.264,2.343,0.396,3.531,0.396c0.924,0,1.891-0.121,2.903-0.363c1.012-0.241,1.937-0.616,2.772-1.122
		c0.835-0.505,1.527-1.155,2.078-1.947s0.826-1.738,0.826-2.838c0-1.144-0.275-2.089-0.826-2.838
		c-0.551-0.748-1.254-1.396-2.111-1.947c-0.857-0.55-1.838-1.033-2.938-1.452c-1.1-0.417-2.2-0.847-3.3-1.287
		c-1.101-0.439-2.2-0.913-3.3-1.419c-1.1-0.505-2.079-1.122-2.938-1.848c-0.857-0.726-1.551-1.584-2.078-2.574
		c-0.528-0.99-0.793-2.188-0.793-3.597c0-1.671,0.396-3.09,1.188-4.257c0.792-1.165,1.804-2.122,3.036-2.871
		c1.231-0.748,2.596-1.297,4.092-1.65c1.496-0.352,2.926-0.528,4.29-0.528c1.804,0,3.454,0.198,4.95,0.594
		c1.495,0.396,2.782,1.035,3.861,1.914c1.077,0.881,1.914,2.013,2.508,3.399c0.594,1.386,0.868,3.069,0.824,5.049h-4.157
		c0.087-1.32-0.066-2.442-0.462-3.366c-0.396-0.924-0.957-1.693-1.684-2.31c-0.726-0.616-1.596-1.066-2.606-1.353
		c-1.013-0.286-2.091-0.429-3.234-0.429c-0.924,0-1.881,0.088-2.87,0.264c-0.99,0.177-1.893,0.474-2.707,0.891
		c-0.814,0.419-1.496,1.001-2.046,1.749c-0.55,0.749-0.825,1.716-0.825,2.904c0,0.792,0.198,1.497,0.594,2.112
		c0.396,0.617,0.925,1.167,1.584,1.65c0.66,0.485,1.42,0.924,2.277,1.32c0.858,0.396,1.771,0.792,2.739,1.188
		c1.188,0.485,2.431,0.98,3.729,1.485c1.297,0.506,2.484,1.133,3.563,1.881c1.077,0.749,1.979,1.65,2.706,2.706
		s1.089,2.376,1.089,3.96c0,1.937-0.407,3.564-1.221,4.884c-0.815,1.32-1.882,2.388-3.201,3.201
		c-1.319,0.815-2.794,1.396-4.422,1.749c-1.628,0.352-3.257,0.528-4.884,0.528c-1.673,0-3.29-0.221-4.852-0.66
		c-1.562-0.439-2.937-1.144-4.125-2.112c-1.188-0.967-2.135-2.211-2.838-3.729c-0.704-1.518-1.012-3.354-0.924-5.511h4.092
		C531.346,94.362,531.621,95.748,532.171,96.847z"/>
</g>
<path id="wrench-6-icon" fill="#93C01F" d="M498.141,97c-0.808-0.988-1.976-1.499-3.204-1.402c-2.216,0.175-4.419-0.697-5.986-2.619
	c-2.061-2.524-2.464-6.171-1.311-9.333l4.684,5.739c1.955,0.132,5.206-3.33,5.227-5.569l-4.684-5.739
	c2.841-1.093,5.999-0.379,8.057,2.146c1.568,1.922,2.176,4.495,1.868,7.007c-0.171,1.393,0.194,2.763,1,3.75l4.087,5.008
	c1.594-2.713,2.607-5.887,2.816-9.28c0.612-9.984-5.991-18.078-14.752-18.078c-8.759,0-16.356,8.094-16.97,18.078
	c-0.612,9.986,5.992,18.08,14.753,18.08c3.075,0,6.006-1,8.544-2.726L498.141,97z"/>
</svg>
