<?xml version="1.0" encoding="utf-8"?>
<!-- Generator: Adobe Illustrator 16.0.4, SVG Export Plug-In . SVG Version: 6.00 Build 0)  -->
<!DOCTYPE svg PUBLIC "-//W3C//DTD SVG 1.1//EN" "http://www.w3.org/Graphics/SVG/1.1/DTD/svg11.dtd">
<svg version="1.1" id="Layer_1" xmlns="http://www.w3.org/2000/svg" xmlns:xlink="http://www.w3.org/1999/xlink" x="0px" y="0px"
	 width="100px" height="100px" viewBox="0 0 200 200" enable-background="new 0 0 200 200" xml:space="preserve">
<g>
	<polygon fill="#589E33" points="58,62.5 58,115.5 139,115.5 139,110.217 139,68.013 139,62.5 	"/>
	<path fill="#589E33" d="M100,0C44.771,0,0,44.771,0,100s44.771,100,100,100s100-44.771,100-100S155.229,0,100,0z M149,121.75
		c0,2.762-2.238,5-5,5h-34.32l27.256,27.256l-7.866,7.865l-24.932-24.932V163.5H93.016v-26.821l-24.672,24.672l-7.865-7.866
		l26.735-26.735H53c-2.762,0-5-2.238-5-5V57c0-2.762,2.238-5,5-5h91c2.762,0,5,2.238,5,5V121.75z"/>
</g>
</svg>
