<?xml version="1.0" encoding="utf-8"?>
<!-- Generator: Adobe Illustrator 16.0.4, SVG Export Plug-In . SVG Version: 6.00 Build 0)  -->
<!DOCTYPE svg PUBLIC "-//W3C//DTD SVG 1.1//EN" "http://www.w3.org/Graphics/SVG/1.1/DTD/svg11.dtd">
<svg version="1.1" id="Layer_1" xmlns="http://www.w3.org/2000/svg" xmlns:xlink="http://www.w3.org/1999/xlink" x="0px" y="0px"
	 width="100px" height="100px" viewBox="0 0 200 200" enable-background="new 0 0 200 200" xml:space="preserve">
<g>
	<g>
		<path fill="#589E33" d="M100,0C44.771,0,0,44.771,0,100s44.771,100,100,100s100-44.771,100-100S155.229,0,100,0z M87.174,145.533
			c-2.097,2.097-5.528,2.097-7.625,0L68.92,134.906c-2.097-2.097-3.769-3.856-3.715-3.91s-1.618-1.813-3.715-3.91l-22.02-22.021
			c-2.097-2.097-2.097-5.528,0-7.625l10.627-10.628c2.097-2.097,5.528-2.097,7.625,0l22.02,22.021c2.097,2.097,5.528,2.097,7.625,0
			l54.62-54.619c2.097-2.097,5.528-2.097,7.625,0l10.628,10.628c2.097,2.097,2.097,5.528,0,7.625L87.174,145.533z"/>
	</g>
</g>
</svg>
