<?xml version="1.0" encoding="utf-8"?>
<!-- Generator: Adobe Illustrator 16.0.4, SVG Export Plug-In . SVG Version: 6.00 Build 0)  -->
<!DOCTYPE svg PUBLIC "-//W3C//DTD SVG 1.1//EN" "http://www.w3.org/Graphics/SVG/1.1/DTD/svg11.dtd">
<svg version="1.1" id="Layer_1" xmlns="http://www.w3.org/2000/svg" xmlns:xlink="http://www.w3.org/1999/xlink" x="0px" y="0px"
	 width="100px" height="100px" viewBox="0 0 200 200" enable-background="new 0 0 200 200" xml:space="preserve">
<g>
	<path fill="#589E33" d="M114.333,68.817V50H62.167v100h75.667V76c0-0.227,0.02-0.448,0.049-0.667H120.63
		C117.167,75.333,114.333,72.401,114.333,68.817z M124.328,135.136l-48.657,0l0-11.124h48.656V135.136z M124.328,115.123l-48.657,0
		l0-11.124h48.656V115.123z M124.328,95.11l-48.657,0l0-11.124h48.656V95.11z"/>
	<path fill="#589E33" d="M100,0C44.771,0,0,44.771,0,100s44.771,100,100,100s100-44.771,100-100S155.229,0,100,0z M147.833,155
		c0,2.761-2.239,5-5,5H57.167c-2.761,0-5-2.239-5-5V45c0-2.761,2.239-5,5-5h57.667c0.313,0,0.614,0.041,0.91,0.099
		c0.789-0.255,1.842,0.183,3,1.404l27.665,29.18c0.933,0.984,1.376,1.897,1.378,2.651h0.005v2.087
		c0.023,0.191,0.043,0.382,0.043,0.58V155z"/>
</g>
</svg>
