<?xml version="1.0" encoding="utf-8"?>
<!-- Generator: Adobe Illustrator 16.0.4, SVG Export Plug-In . SVG Version: 6.00 Build 0)  -->
<!DOCTYPE svg PUBLIC "-//W3C//DTD SVG 1.1//EN" "http://www.w3.org/Graphics/SVG/1.1/DTD/svg11.dtd">
<svg version="1.1" id="Layer_1" xmlns="http://www.w3.org/2000/svg" xmlns:xlink="http://www.w3.org/1999/xlink" x="0px" y="0px"
	 width="100px" height="100px" viewBox="0 0 200 200" enable-background="new 0 0 200 200" xml:space="preserve">
<g>
	<path fill="#FBA600" d="M170.711,29.288c-39.051-39.051-102.369-39.051-141.422,0c-39.053,39.055-39.051,102.37,0,141.421
		c39.054,39.053,102.369,39.055,141.421,0C209.763,131.658,209.763,68.341,170.711,29.288z M100.918,34.165
		c14.354,0,25.988,11.635,25.988,25.986c0,14.355-11.635,25.99-25.988,25.99s-25.989-11.635-25.989-25.99
		C74.929,45.8,86.564,34.165,100.918,34.165z M142.557,159.367c-10.826,9.737-25.145,15.667-40.852,15.667
		c-16.484,0-31.434-6.539-42.428-17.148v-26.214c0-21.55,17.631-39.181,39.182-39.181h4.918c21.549,0,39.18,17.631,39.18,39.181
		V159.367z"/>
</g>
<path fill="#FBA600" d="M121.774,126.533c-0.058-1.158-0.636-2.438-1.045-3.28c-0.899-1.859-2.223-3.493-3.562-5.053
	c-1.465-1.706-3.076-3.32-5.06-4.415c-1.38-0.762-4.656-2.353-6.034-0.98c-6.744,6.719-13.499,13.427-20.239,20.146
	c-0.179,0.18-0.33,0.428-0.396,0.671c-1.447,5.304-2.875,10.613-4.312,15.919c-0.295,1.085-0.603,2.166-0.903,3.247
	c0,0.323,0,0.646,0,0.97c0.345,0,0.692,0,1.037,0c0.09-0.041,0.177-0.094,0.269-0.121c3.396-0.907,6.787-1.814,10.188-2.719
	c2.645-0.707,5.288-1.438,7.948-2.102c0.853-0.214,1.524-0.603,2.141-1.221c6.438-6.421,12.886-12.828,19.357-19.219
	C121.655,127.888,121.807,127.233,121.774,126.533z M99.136,146.643c-2.513,0.671-5.025,1.334-7.536,2.01
	c-0.187,0.049-0.301,0.014-0.435-0.119c-1.894-1.89-3.796-3.778-5.7-5.66c-0.137-0.135-0.166-0.254-0.113-0.434
	c0.23-0.822,0.454-1.649,0.677-2.478c0.447-1.664,0.896-3.328,1.353-4.99c0.126-0.471,0.425-0.639,0.883-0.518
	c0.549,0.146,1.099,0.283,1.647,0.442c0.172,0.05,0.338,0.073,0.498,0.083v0.001c4.92,4.157,7.452,6.82,8.697,8.53
	c-0.004,0.195,0.016,0.394,0.074,0.606c0.156,0.546,0.307,1.094,0.455,1.64C99.766,146.22,99.601,146.52,99.136,146.643z"/>
</svg>
