<?xml version="1.0" encoding="utf-8"?>
<!-- Generator: Adobe Illustrator 16.0.4, SVG Export Plug-In . SVG Version: 6.00 Build 0)  -->
<!DOCTYPE svg PUBLIC "-//W3C//DTD SVG 1.1//EN" "http://www.w3.org/Graphics/SVG/1.1/DTD/svg11.dtd">
<svg version="1.1" id="Layer_1" xmlns="http://www.w3.org/2000/svg" xmlns:xlink="http://www.w3.org/1999/xlink" x="0px" y="0px"
	 width="100px" height="100px" viewBox="0 0 200 200" enable-background="new 0 0 200 200" xml:space="preserve">
<g>
	<path fill="#ACD037" d="M170.711,29.288c-39.051-39.051-102.369-39.051-141.422,0C-9.764,68.343-9.762,131.658,29.29,170.709
		c39.053,39.053,102.369,39.055,141.42,0C209.763,131.658,209.763,68.341,170.711,29.288z M100.918,34.165
		c14.353,0,25.988,11.635,25.988,25.986c0,14.355-11.635,25.99-25.988,25.99c-14.354,0-25.989-11.635-25.989-25.99
		C74.929,45.8,86.564,34.165,100.918,34.165z M142.557,159.367c-10.826,9.737-25.145,15.667-40.852,15.667
		c-16.484,0-31.433-6.539-42.427-17.148v-26.214c0-21.55,17.631-39.181,39.182-39.181h4.917c21.549,0,39.18,17.631,39.18,39.181
		V159.367z"/>
	<g>
		<path fill="#ACD037" d="M106.142,133.37c-2.688,0.851-7.081,0.833-9.762-0.041l-21.355-6.958c-2.681-0.874-2.796-2.59-0.256-3.814
			l21.765-10.488c2.54-1.224,6.688-1.209,9.22,0.032l21.898,10.744c2.531,1.242,2.403,2.954-0.286,3.806L106.142,133.37z"/>
		<g>
			<path fill="#ACD037" d="M105.722,137.723c-1.398,0.442-3.238,0.687-5.181,0.687c-2.015,0-3.92-0.26-5.365-0.731l-12.487-4.068
				v12.668c0,2.325,7.842,7.628,17.515,7.628c9.674,0,17.515-5.303,17.515-7.628v-12.354L105.722,137.723z"/>
		</g>
	</g>
</g>
</svg>
