<?xml version="1.0" encoding="utf-8"?>
<!-- Generator: Adobe Illustrator 16.0.4, SVG Export Plug-In . SVG Version: 6.00 Build 0)  -->
<!DOCTYPE svg PUBLIC "-//W3C//DTD SVG 1.1//EN" "http://www.w3.org/Graphics/SVG/1.1/DTD/svg11.dtd">
<svg version="1.1" id="Layer_1" xmlns="http://www.w3.org/2000/svg" xmlns:xlink="http://www.w3.org/1999/xlink" x="0px" y="0px"
	 width="100px" height="100px" viewBox="0 0 200 200" enable-background="new 0 0 200 200" xml:space="preserve">
<circle fill="#589E33" cx="100" cy="100" r="100"/>
<g>
	<path fill-rule="evenodd" clip-rule="evenodd" fill="#FFFFFF" d="M136.28,43.629c-1.067,0.988-2.025,1.82-2.924,2.715
		c-5.136,5.117-10.222,10.284-15.41,15.347c-1.077,1.052-1.242,2.075-0.921,3.394c1.041,4.281,3.594,7.614,6.675,10.593
		c2.771,2.677,5.851,4.862,9.684,5.799c1.39,0.341,2.426,0.117,3.504-0.983c5.6-5.718,11.293-11.343,16.944-17.009
		c0.329-0.331,0.58-0.741,1.099-1.415c0.379,1.179,0.673,1.936,0.869,2.717c4.881,19.424-9.994,38.289-29.981,37.945
		c-3.028-0.053-6.086-0.335-8.854,1.037c-1.947,0.965-3.905,2.158-5.437,3.676c-15.309,15.182-30.542,30.439-45.765,45.707
		c-3.284,3.297-7.086,5.32-11.812,4.984c-5.854-0.418-10.163-3.344-12.449-8.762c-2.283-5.414-1.354-10.496,2.401-15.029
		c0.569-0.687,1.203-1.322,1.835-1.955C60.88,117.24,76.025,102.095,91.173,86.95c3.509-3.507,5.054-7.742,4.661-12.67
		c-1.194-15.007,9.746-29.239,24.559-31.926C125.925,41.352,132.091,41.795,136.28,43.629z M61.513,143.139
		c0.02-3.303-2.563-5.902-5.884-5.92c-3.302-0.018-5.952,2.567-5.98,5.837c-0.029,3.241,2.631,5.923,5.896,5.943
		C58.833,149.02,61.493,146.408,61.513,143.139z"/>
</g>
</svg>
