<?xml version="1.0" encoding="utf-8"?>
<!-- Generator: Adobe Illustrator 16.0.4, SVG Export Plug-In . SVG Version: 6.00 Build 0)  -->
<!DOCTYPE svg PUBLIC "-//W3C//DTD SVG 1.1//EN" "http://www.w3.org/Graphics/SVG/1.1/DTD/svg11.dtd">
<svg version="1.1" id="Layer_1" xmlns="http://www.w3.org/2000/svg" xmlns:xlink="http://www.w3.org/1999/xlink" x="0px" y="0px"
	 width="100px" height="100px" viewBox="0 0 200 200" enable-background="new 0 0 200 200" xml:space="preserve">
<path fill="#589E33" d="M100,0C44.771,0,0,44.771,0,100s44.771,100,100,100s100-44.771,100-100S155.229,0,100,0z M143.367,56.765
	c7.781,0,14.088,6.308,14.088,14.089c0,7.782-6.307,14.09-14.088,14.09c-7.783,0-14.09-6.308-14.09-14.09
	C129.277,63.072,135.584,56.765,143.367,56.765z M100.002,39.47c12.336,0,22.334,9.999,22.334,22.332
	c0,12.337-9.998,22.335-22.334,22.335c-12.334,0-22.334-9.998-22.334-22.335C77.668,49.469,87.668,39.47,100.002,39.47z
	 M56.637,56.765c7.781,0,14.09,6.308,14.09,14.089c0,7.782-6.309,14.09-14.09,14.09s-14.09-6.308-14.09-14.09
	C42.547,63.072,48.855,56.765,56.637,56.765z M165.941,124.643c-5.869,5.279-13.633,8.494-22.148,8.494
	c-2.762,0-5.443-0.34-8.006-0.977v14.906c-9.305,8.367-21.611,13.465-35.109,13.465c-14.166,0-27.014-5.62-36.461-14.737v-13.44
	c-2.305,0.508-4.695,0.783-7.152,0.783c-8.938,0-17.043-3.545-23.004-9.297v-14.212c0-11.684,9.559-21.243,21.242-21.243h2.666
	c7.396,0,13.936,3.833,17.742,9.607c5.936-5.219,13.701-8.399,22.178-8.399h4.225c8.477,0,16.242,3.181,22.178,8.398
	c3.807-5.774,10.346-9.606,17.742-9.606h2.666c11.684,0,21.242,9.56,21.242,21.243V124.643z"/>
</svg>
