<?xml version="1.0" encoding="utf-8"?>
<!-- Generator: Adobe Illustrator 16.0.4, SVG Export Plug-In . SVG Version: 6.00 Build 0)  -->
<!DOCTYPE svg PUBLIC "-//W3C//DTD SVG 1.1//EN" "http://www.w3.org/Graphics/SVG/1.1/DTD/svg11.dtd">
<svg version="1.1" id="Layer_1" xmlns="http://www.w3.org/2000/svg" xmlns:xlink="http://www.w3.org/1999/xlink" x="0px" y="0px"
	 width="100px" height="100px" viewBox="0 0 200 200" enable-background="new 0 0 200 200" xml:space="preserve">
<path fill="#589E33" d="M100,0C44.771,0,0,44.771,0,100s44.771,100,100,100s100-44.771,100-100S155.229,0,100,0z M55.178,119.765
	c-3.413-10.19-5.562-20.478-5.32-30.921c0.108-4.69,0.699-9.411,1.876-14.169c1.684-6.816,5.25-12.231,12.758-13.821
	c7.992-1.691,15.444,1.781,20.015,10.153c7.444,13.638,9.347,29.044,6.698,44.262c-0.549,3.152-0.897,7.605-2.495,10.416
	c-2.283,4.016-8.212,5.017-12.325,5.838c-4.346,0.869-10.747,3.391-14.698,0.622C57.819,129.435,56.599,124.009,55.178,119.765z
	 M95.69,156.169c-0.798,5.422-3.428,9.756-8.969,11.478c-5.619,1.747-10.109-0.547-13.701-4.724
	c-5.504-6.398-7.062-14.204-7.769-22.494c7.607-2.32,14.758-4.538,21.946-6.632c0.708-0.206,2.065,0.076,2.401,0.596
	C93.871,141.006,96.883,148.067,95.69,156.169z M125.23,132.568c-3.592,4.177-8.083,6.471-13.701,4.725
	c-5.541-1.723-8.171-6.057-8.969-11.478c-1.192-8.102,1.819-15.164,6.091-21.777c0.336-0.52,1.693-0.802,2.401-0.596
	c7.188,2.094,14.339,4.312,21.946,6.632C132.293,118.365,130.733,126.17,125.23,132.568z M143.073,89.41
	c-1.421,4.245-2.642,9.67-6.508,12.38c-3.951,2.77-10.353,0.247-14.698-0.622c-4.113-0.822-10.042-1.823-12.325-5.839
	c-1.598-2.811-1.946-7.263-2.495-10.416c-2.648-15.218-0.746-30.624,6.698-44.262c4.57-8.372,12.022-11.844,20.014-10.153
	c7.509,1.59,11.074,7.005,12.76,13.821c1.176,4.758,1.767,9.479,1.875,14.169C148.636,68.932,146.486,79.22,143.073,89.41z"/>
</svg>
